<mxfile host="app.diagrams.net" modified="2023-12-12T10:17:22.378Z" agent="Mozilla/5.0 (Windows NT 10.0; Win64; x64) AppleWebKit/537.36 (KHTML, like Gecko) Chrome/120.0.0.0 Safari/537.36" etag="FeLT03P0a3sm-l35_arS" version="22.1.7" type="github">
  <diagram id="C5RBs43oDa-KdzZeNtuy" name="Page-1">
    <mxGraphModel dx="336" dy="399" grid="1" gridSize="10" guides="1" tooltips="1" connect="1" arrows="1" fold="1" page="1" pageScale="1" pageWidth="827" pageHeight="1169" math="0" shadow="0">
      <root>
        <mxCell id="WIyWlLk6GJQsqaUBKTNV-0" />
        <mxCell id="WIyWlLk6GJQsqaUBKTNV-1" parent="WIyWlLk6GJQsqaUBKTNV-0" />
        <mxCell id="WIyWlLk6GJQsqaUBKTNV-3" value="Producto" style="rounded=1;whiteSpace=wrap;html=1;fontSize=12;glass=0;strokeWidth=1;shadow=0;" parent="WIyWlLk6GJQsqaUBKTNV-1" vertex="1">
          <mxGeometry x="1553" y="267.5" width="130" height="60" as="geometry" />
        </mxCell>
        <mxCell id="WIyWlLk6GJQsqaUBKTNV-6" value="Clasificado en&amp;nbsp;" style="rhombus;whiteSpace=wrap;html=1;shadow=0;fontFamily=Helvetica;fontSize=12;align=center;strokeWidth=1;spacing=6;spacingTop=-4;" parent="WIyWlLk6GJQsqaUBKTNV-1" vertex="1">
          <mxGeometry x="1568" y="387.5" width="100" height="80" as="geometry" />
        </mxCell>
        <mxCell id="WIyWlLk6GJQsqaUBKTNV-7" value="TipoProducto" style="rounded=1;whiteSpace=wrap;html=1;fontSize=12;glass=0;strokeWidth=1;shadow=0;" parent="WIyWlLk6GJQsqaUBKTNV-1" vertex="1">
          <mxGeometry x="1748" y="397.5" width="130" height="60" as="geometry" />
        </mxCell>
        <mxCell id="WIyWlLk6GJQsqaUBKTNV-10" value="Realiza" style="rhombus;whiteSpace=wrap;html=1;shadow=0;fontFamily=Helvetica;fontSize=12;align=center;strokeWidth=1;spacing=6;spacingTop=-4;" parent="WIyWlLk6GJQsqaUBKTNV-1" vertex="1">
          <mxGeometry x="810" y="520" width="100" height="80" as="geometry" />
        </mxCell>
        <mxCell id="WIyWlLk6GJQsqaUBKTNV-11" value="Compra" style="rounded=1;whiteSpace=wrap;html=1;fontSize=12;glass=0;strokeWidth=1;shadow=0;" parent="WIyWlLk6GJQsqaUBKTNV-1" vertex="1">
          <mxGeometry x="990" y="530" width="130" height="60" as="geometry" />
        </mxCell>
        <mxCell id="WIyWlLk6GJQsqaUBKTNV-12" value="Cliente" style="rounded=1;whiteSpace=wrap;html=1;fontSize=12;glass=0;strokeWidth=1;shadow=0;" parent="WIyWlLk6GJQsqaUBKTNV-1" vertex="1">
          <mxGeometry x="793" y="400" width="130" height="60" as="geometry" />
        </mxCell>
        <mxCell id="BJbLeU8236tcsoLbHiMb-0" value="Contiene" style="rhombus;whiteSpace=wrap;html=1;shadow=0;fontFamily=Helvetica;fontSize=12;align=center;strokeWidth=1;spacing=6;spacingTop=-4;" vertex="1" parent="WIyWlLk6GJQsqaUBKTNV-1">
          <mxGeometry x="1210" y="370" width="100" height="80" as="geometry" />
        </mxCell>
        <mxCell id="BJbLeU8236tcsoLbHiMb-3" value="Descripción" style="ellipse;whiteSpace=wrap;html=1;fontSize=16;" vertex="1" parent="WIyWlLk6GJQsqaUBKTNV-1">
          <mxGeometry x="1960" y="387.5" width="130" height="70" as="geometry" />
        </mxCell>
        <mxCell id="BJbLeU8236tcsoLbHiMb-18" value="" style="endArrow=none;html=1;rounded=0;fontSize=12;startSize=8;endSize=8;curved=1;" edge="1" parent="WIyWlLk6GJQsqaUBKTNV-1" target="BJbLeU8236tcsoLbHiMb-3">
          <mxGeometry width="50" height="50" relative="1" as="geometry">
            <mxPoint x="1878" y="422.5" as="sourcePoint" />
            <mxPoint x="1928" y="372.5" as="targetPoint" />
          </mxGeometry>
        </mxCell>
        <mxCell id="BJbLeU8236tcsoLbHiMb-19" value="Nombre_Contacto" style="ellipse;whiteSpace=wrap;html=1;fontSize=16;" vertex="1" parent="WIyWlLk6GJQsqaUBKTNV-1">
          <mxGeometry x="950" y="282.5" width="135" height="70" as="geometry" />
        </mxCell>
        <mxCell id="BJbLeU8236tcsoLbHiMb-20" value="Dirección" style="ellipse;whiteSpace=wrap;html=1;fontSize=16;" vertex="1" parent="WIyWlLk6GJQsqaUBKTNV-1">
          <mxGeometry x="788" y="240" width="135" height="70" as="geometry" />
        </mxCell>
        <mxCell id="BJbLeU8236tcsoLbHiMb-21" value="Nombre" style="ellipse;whiteSpace=wrap;html=1;fontSize=16;" vertex="1" parent="WIyWlLk6GJQsqaUBKTNV-1">
          <mxGeometry x="630" y="282.5" width="135" height="70" as="geometry" />
        </mxCell>
        <mxCell id="BJbLeU8236tcsoLbHiMb-22" value="ID_Cliente" style="ellipse;whiteSpace=wrap;html=1;fontSize=16;" vertex="1" parent="WIyWlLk6GJQsqaUBKTNV-1">
          <mxGeometry x="562" y="460" width="135" height="70" as="geometry" />
        </mxCell>
        <mxCell id="BJbLeU8236tcsoLbHiMb-23" value="" style="endArrow=none;html=1;rounded=0;fontSize=12;startSize=8;endSize=8;curved=1;" edge="1" parent="WIyWlLk6GJQsqaUBKTNV-1" target="BJbLeU8236tcsoLbHiMb-22">
          <mxGeometry width="50" height="50" relative="1" as="geometry">
            <mxPoint x="810" y="560" as="sourcePoint" />
            <mxPoint x="690.597905448434" y="511.6096126825023" as="targetPoint" />
          </mxGeometry>
        </mxCell>
        <mxCell id="BJbLeU8236tcsoLbHiMb-24" value="" style="endArrow=none;html=1;rounded=0;fontSize=12;startSize=8;endSize=8;curved=1;" edge="1" parent="WIyWlLk6GJQsqaUBKTNV-1" target="BJbLeU8236tcsoLbHiMb-21">
          <mxGeometry width="50" height="50" relative="1" as="geometry">
            <mxPoint x="858" y="400" as="sourcePoint" />
            <mxPoint x="805.2150000000001" y="312.03" as="targetPoint" />
          </mxGeometry>
        </mxCell>
        <mxCell id="BJbLeU8236tcsoLbHiMb-25" value="" style="endArrow=none;html=1;rounded=0;fontSize=12;startSize=8;endSize=8;curved=1;" edge="1" parent="WIyWlLk6GJQsqaUBKTNV-1">
          <mxGeometry width="50" height="50" relative="1" as="geometry">
            <mxPoint x="858" y="400" as="sourcePoint" />
            <mxPoint x="858" y="310" as="targetPoint" />
          </mxGeometry>
        </mxCell>
        <mxCell id="BJbLeU8236tcsoLbHiMb-26" value="" style="endArrow=none;html=1;rounded=0;fontSize=12;startSize=8;endSize=8;curved=1;" edge="1" parent="WIyWlLk6GJQsqaUBKTNV-1" target="BJbLeU8236tcsoLbHiMb-19">
          <mxGeometry width="50" height="50" relative="1" as="geometry">
            <mxPoint x="858" y="400" as="sourcePoint" />
            <mxPoint x="908" y="350" as="targetPoint" />
          </mxGeometry>
        </mxCell>
        <mxCell id="BJbLeU8236tcsoLbHiMb-27" value="Fecha" style="ellipse;whiteSpace=wrap;html=1;fontSize=16;" vertex="1" parent="WIyWlLk6GJQsqaUBKTNV-1">
          <mxGeometry x="1195" y="525" width="130" height="70" as="geometry" />
        </mxCell>
        <mxCell id="BJbLeU8236tcsoLbHiMb-28" value="ID_Compra" style="ellipse;whiteSpace=wrap;html=1;fontSize=16;" vertex="1" parent="WIyWlLk6GJQsqaUBKTNV-1">
          <mxGeometry x="567" y="550" width="130" height="70" as="geometry" />
        </mxCell>
        <mxCell id="BJbLeU8236tcsoLbHiMb-30" value="" style="endArrow=none;html=1;rounded=0;fontSize=12;startSize=8;endSize=8;curved=1;" edge="1" target="BJbLeU8236tcsoLbHiMb-27" parent="WIyWlLk6GJQsqaUBKTNV-1">
          <mxGeometry width="50" height="50" relative="1" as="geometry">
            <mxPoint x="1120" y="560" as="sourcePoint" />
            <mxPoint x="1170" y="510" as="targetPoint" />
          </mxGeometry>
        </mxCell>
        <mxCell id="BJbLeU8236tcsoLbHiMb-31" value="" style="endArrow=none;html=1;rounded=0;fontSize=12;startSize=8;endSize=8;curved=1;entryX=0.5;entryY=1;entryDx=0;entryDy=0;" edge="1" parent="WIyWlLk6GJQsqaUBKTNV-1" target="WIyWlLk6GJQsqaUBKTNV-3">
          <mxGeometry width="50" height="50" relative="1" as="geometry">
            <mxPoint x="1618" y="387.5" as="sourcePoint" />
            <mxPoint x="1668" y="337.5" as="targetPoint" />
          </mxGeometry>
        </mxCell>
        <mxCell id="BJbLeU8236tcsoLbHiMb-32" value="" style="endArrow=none;html=1;rounded=0;fontSize=12;startSize=8;endSize=8;curved=1;entryX=0;entryY=0.5;entryDx=0;entryDy=0;" edge="1" parent="WIyWlLk6GJQsqaUBKTNV-1" target="WIyWlLk6GJQsqaUBKTNV-7">
          <mxGeometry width="50" height="50" relative="1" as="geometry">
            <mxPoint x="1668" y="427.5" as="sourcePoint" />
            <mxPoint x="1718" y="377.5" as="targetPoint" />
          </mxGeometry>
        </mxCell>
        <mxCell id="BJbLeU8236tcsoLbHiMb-33" value="" style="endArrow=none;html=1;rounded=0;fontSize=12;startSize=8;endSize=8;curved=1;entryX=0.5;entryY=1;entryDx=0;entryDy=0;" edge="1" parent="WIyWlLk6GJQsqaUBKTNV-1" target="WIyWlLk6GJQsqaUBKTNV-12">
          <mxGeometry width="50" height="50" relative="1" as="geometry">
            <mxPoint x="858" y="520" as="sourcePoint" />
            <mxPoint x="908" y="470" as="targetPoint" />
          </mxGeometry>
        </mxCell>
        <mxCell id="BJbLeU8236tcsoLbHiMb-34" value="" style="endArrow=none;html=1;rounded=0;fontSize=12;startSize=8;endSize=8;curved=1;entryX=0;entryY=0.5;entryDx=0;entryDy=0;" edge="1" parent="WIyWlLk6GJQsqaUBKTNV-1" target="WIyWlLk6GJQsqaUBKTNV-11">
          <mxGeometry width="50" height="50" relative="1" as="geometry">
            <mxPoint x="910" y="560" as="sourcePoint" />
            <mxPoint x="960" y="510" as="targetPoint" />
          </mxGeometry>
        </mxCell>
        <mxCell id="BJbLeU8236tcsoLbHiMb-36" value="" style="endArrow=none;html=1;rounded=0;fontSize=12;startSize=8;endSize=8;curved=1;" edge="1" parent="WIyWlLk6GJQsqaUBKTNV-1">
          <mxGeometry width="50" height="50" relative="1" as="geometry">
            <mxPoint x="1050" y="530" as="sourcePoint" />
            <mxPoint x="1050" y="410" as="targetPoint" />
          </mxGeometry>
        </mxCell>
        <mxCell id="BJbLeU8236tcsoLbHiMb-37" value="" style="endArrow=none;html=1;rounded=0;fontSize=12;startSize=8;endSize=8;curved=1;" edge="1" parent="WIyWlLk6GJQsqaUBKTNV-1">
          <mxGeometry width="50" height="50" relative="1" as="geometry">
            <mxPoint x="1050" y="410" as="sourcePoint" />
            <mxPoint x="1210" y="410.5" as="targetPoint" />
          </mxGeometry>
        </mxCell>
        <mxCell id="BJbLeU8236tcsoLbHiMb-38" value="" style="endArrow=none;html=1;rounded=0;fontSize=12;startSize=8;endSize=8;curved=1;exitX=0.495;exitY=0;exitDx=0;exitDy=0;exitPerimeter=0;" edge="1" parent="WIyWlLk6GJQsqaUBKTNV-1" source="BJbLeU8236tcsoLbHiMb-0">
          <mxGeometry width="50" height="50" relative="1" as="geometry">
            <mxPoint x="1259.5" y="365" as="sourcePoint" />
            <mxPoint x="1259.5" y="295" as="targetPoint" />
          </mxGeometry>
        </mxCell>
        <mxCell id="BJbLeU8236tcsoLbHiMb-39" value="" style="endArrow=none;html=1;rounded=0;fontSize=12;startSize=8;endSize=8;curved=1;entryX=0;entryY=0.5;entryDx=0;entryDy=0;" edge="1" parent="WIyWlLk6GJQsqaUBKTNV-1" target="WIyWlLk6GJQsqaUBKTNV-3">
          <mxGeometry width="50" height="50" relative="1" as="geometry">
            <mxPoint x="1260" y="295" as="sourcePoint" />
            <mxPoint x="1465" y="295" as="targetPoint" />
          </mxGeometry>
        </mxCell>
        <mxCell id="BJbLeU8236tcsoLbHiMb-40" value="" style="endArrow=none;html=1;rounded=0;fontSize=12;startSize=8;endSize=8;curved=1;" edge="1" parent="WIyWlLk6GJQsqaUBKTNV-1" target="BJbLeU8236tcsoLbHiMb-28">
          <mxGeometry width="50" height="50" relative="1" as="geometry">
            <mxPoint x="810" y="560" as="sourcePoint" />
            <mxPoint x="685" y="530.06" as="targetPoint" />
          </mxGeometry>
        </mxCell>
        <mxCell id="BJbLeU8236tcsoLbHiMb-41" value="ID_Producto" style="ellipse;whiteSpace=wrap;html=1;fontSize=16;" vertex="1" parent="WIyWlLk6GJQsqaUBKTNV-1">
          <mxGeometry x="1360" y="340" width="130" height="70" as="geometry" />
        </mxCell>
        <mxCell id="BJbLeU8236tcsoLbHiMb-42" value="ID_Compra" style="ellipse;whiteSpace=wrap;html=1;fontSize=16;" vertex="1" parent="WIyWlLk6GJQsqaUBKTNV-1">
          <mxGeometry x="1360" y="422.5" width="130" height="70" as="geometry" />
        </mxCell>
        <mxCell id="BJbLeU8236tcsoLbHiMb-43" value="" style="endArrow=none;html=1;rounded=0;fontSize=12;startSize=8;endSize=8;curved=1;" edge="1" parent="WIyWlLk6GJQsqaUBKTNV-1" target="BJbLeU8236tcsoLbHiMb-41">
          <mxGeometry width="50" height="50" relative="1" as="geometry">
            <mxPoint x="1310" y="410" as="sourcePoint" />
            <mxPoint x="1369.1037958679003" y="390.3637353411866" as="targetPoint" />
          </mxGeometry>
        </mxCell>
        <mxCell id="BJbLeU8236tcsoLbHiMb-46" value="" style="endArrow=none;html=1;rounded=0;fontSize=12;startSize=8;endSize=8;curved=1;" edge="1" parent="WIyWlLk6GJQsqaUBKTNV-1" target="BJbLeU8236tcsoLbHiMb-42">
          <mxGeometry width="50" height="50" relative="1" as="geometry">
            <mxPoint x="1310" y="412.5" as="sourcePoint" />
            <mxPoint x="1360" y="362.5" as="targetPoint" />
          </mxGeometry>
        </mxCell>
        <mxCell id="BJbLeU8236tcsoLbHiMb-47" value="Cantidad_Stock" style="ellipse;whiteSpace=wrap;html=1;fontSize=16;" vertex="1" parent="WIyWlLk6GJQsqaUBKTNV-1">
          <mxGeometry x="1710.5" y="150" width="135" height="70" as="geometry" />
        </mxCell>
        <mxCell id="BJbLeU8236tcsoLbHiMb-48" value="Precio" style="ellipse;whiteSpace=wrap;html=1;fontSize=16;" vertex="1" parent="WIyWlLk6GJQsqaUBKTNV-1">
          <mxGeometry x="1548.5" y="107.5" width="135" height="70" as="geometry" />
        </mxCell>
        <mxCell id="BJbLeU8236tcsoLbHiMb-49" value="Nombre" style="ellipse;whiteSpace=wrap;html=1;fontSize=16;" vertex="1" parent="WIyWlLk6GJQsqaUBKTNV-1">
          <mxGeometry x="1390.5" y="150" width="135" height="70" as="geometry" />
        </mxCell>
        <mxCell id="BJbLeU8236tcsoLbHiMb-50" value="" style="endArrow=none;html=1;rounded=0;fontSize=12;startSize=8;endSize=8;curved=1;" edge="1" target="BJbLeU8236tcsoLbHiMb-49" parent="WIyWlLk6GJQsqaUBKTNV-1">
          <mxGeometry width="50" height="50" relative="1" as="geometry">
            <mxPoint x="1618.5" y="267.5" as="sourcePoint" />
            <mxPoint x="1565.7150000000001" y="179.52999999999997" as="targetPoint" />
          </mxGeometry>
        </mxCell>
        <mxCell id="BJbLeU8236tcsoLbHiMb-51" value="" style="endArrow=none;html=1;rounded=0;fontSize=12;startSize=8;endSize=8;curved=1;" edge="1" parent="WIyWlLk6GJQsqaUBKTNV-1">
          <mxGeometry width="50" height="50" relative="1" as="geometry">
            <mxPoint x="1618.5" y="267.5" as="sourcePoint" />
            <mxPoint x="1618.5" y="177.5" as="targetPoint" />
          </mxGeometry>
        </mxCell>
        <mxCell id="BJbLeU8236tcsoLbHiMb-52" value="" style="endArrow=none;html=1;rounded=0;fontSize=12;startSize=8;endSize=8;curved=1;" edge="1" target="BJbLeU8236tcsoLbHiMb-47" parent="WIyWlLk6GJQsqaUBKTNV-1">
          <mxGeometry width="50" height="50" relative="1" as="geometry">
            <mxPoint x="1618.5" y="267.5" as="sourcePoint" />
            <mxPoint x="1668.5" y="217.5" as="targetPoint" />
          </mxGeometry>
        </mxCell>
        <mxCell id="BJbLeU8236tcsoLbHiMb-53" value="ID_Producto" style="ellipse;whiteSpace=wrap;html=1;fontSize=16;" vertex="1" parent="WIyWlLk6GJQsqaUBKTNV-1">
          <mxGeometry x="1640" y="492.5" width="130" height="70" as="geometry" />
        </mxCell>
        <mxCell id="BJbLeU8236tcsoLbHiMb-54" value="ID_Tipo" style="ellipse;whiteSpace=wrap;html=1;fontSize=16;" vertex="1" parent="WIyWlLk6GJQsqaUBKTNV-1">
          <mxGeometry x="1490" y="492.5" width="130" height="70" as="geometry" />
        </mxCell>
        <mxCell id="BJbLeU8236tcsoLbHiMb-55" value="" style="endArrow=none;html=1;rounded=0;fontSize=12;startSize=8;endSize=8;curved=1;entryX=0.5;entryY=1;entryDx=0;entryDy=0;" edge="1" parent="WIyWlLk6GJQsqaUBKTNV-1" source="BJbLeU8236tcsoLbHiMb-54" target="WIyWlLk6GJQsqaUBKTNV-6">
          <mxGeometry width="50" height="50" relative="1" as="geometry">
            <mxPoint x="1570" y="517.5" as="sourcePoint" />
            <mxPoint x="1620" y="467.5" as="targetPoint" />
          </mxGeometry>
        </mxCell>
        <mxCell id="BJbLeU8236tcsoLbHiMb-56" value="" style="endArrow=none;html=1;rounded=0;fontSize=12;startSize=8;endSize=8;curved=1;entryX=0.5;entryY=1;entryDx=0;entryDy=0;" edge="1" parent="WIyWlLk6GJQsqaUBKTNV-1" source="BJbLeU8236tcsoLbHiMb-53" target="WIyWlLk6GJQsqaUBKTNV-6">
          <mxGeometry width="50" height="50" relative="1" as="geometry">
            <mxPoint x="1570" y="517.5" as="sourcePoint" />
            <mxPoint x="1620" y="467.5" as="targetPoint" />
          </mxGeometry>
        </mxCell>
        <mxCell id="BJbLeU8236tcsoLbHiMb-57" value="1:N" style="text;html=1;align=center;verticalAlign=middle;resizable=0;points=[];autosize=1;strokeColor=none;fillColor=none;fontSize=16;" vertex="1" parent="WIyWlLk6GJQsqaUBKTNV-1">
          <mxGeometry x="1680" y="392.5" width="50" height="30" as="geometry" />
        </mxCell>
        <mxCell id="BJbLeU8236tcsoLbHiMb-59" value="N:1" style="text;html=1;align=center;verticalAlign=middle;resizable=0;points=[];autosize=1;strokeColor=none;fillColor=none;fontSize=16;" vertex="1" parent="WIyWlLk6GJQsqaUBKTNV-1">
          <mxGeometry x="1618" y="348" width="50" height="30" as="geometry" />
        </mxCell>
        <mxCell id="BJbLeU8236tcsoLbHiMb-60" value="1:N" style="text;html=1;align=center;verticalAlign=middle;resizable=0;points=[];autosize=1;strokeColor=none;fillColor=none;fontSize=16;" vertex="1" parent="WIyWlLk6GJQsqaUBKTNV-1">
          <mxGeometry x="855" y="478" width="50" height="30" as="geometry" />
        </mxCell>
        <mxCell id="BJbLeU8236tcsoLbHiMb-61" value="N:1" style="text;html=1;align=center;verticalAlign=middle;resizable=0;points=[];autosize=1;strokeColor=none;fillColor=none;fontSize=16;" vertex="1" parent="WIyWlLk6GJQsqaUBKTNV-1">
          <mxGeometry x="925" y="528" width="50" height="30" as="geometry" />
        </mxCell>
        <mxCell id="BJbLeU8236tcsoLbHiMb-62" value="N:M" style="text;html=1;align=center;verticalAlign=middle;resizable=0;points=[];autosize=1;strokeColor=none;fillColor=none;fontSize=16;" vertex="1" parent="WIyWlLk6GJQsqaUBKTNV-1">
          <mxGeometry x="1100" y="380" width="50" height="30" as="geometry" />
        </mxCell>
        <mxCell id="BJbLeU8236tcsoLbHiMb-63" value="N:M" style="text;html=1;align=center;verticalAlign=middle;resizable=0;points=[];autosize=1;strokeColor=none;fillColor=none;fontSize=16;" vertex="1" parent="WIyWlLk6GJQsqaUBKTNV-1">
          <mxGeometry x="1390.5" y="267.5" width="50" height="30" as="geometry" />
        </mxCell>
      </root>
    </mxGraphModel>
  </diagram>
</mxfile>
